<?xml version="1.0" encoding="UTF-8"?> <svg xmlns="http://www.w3.org/2000/svg" width="50" height="51" viewBox="0 0 50 51" fill="none"> <path d="M25 34.4099V15.6599" stroke="#D32F2A" stroke-width="2.34375" stroke-linecap="round" stroke-linejoin="round"></path> <path d="M17.1875 28.1599C18.7327 28.1599 20.2431 28.6181 21.5279 29.4765C22.8127 30.335 23.814 31.5551 24.4053 32.9827C24.9966 34.4102 25.1513 35.981 24.8499 37.4965C24.5484 39.012 23.8044 40.4041 22.7118 41.4967C21.6192 42.5893 20.2271 43.3333 18.7116 43.6348C17.1962 43.9362 15.6253 43.7815 14.1978 43.1902C12.7702 42.5989 11.5501 41.5975 10.6916 40.3128C9.83319 39.028 9.375 37.5175 9.375 35.9724V34.6573" stroke="#D32F2A" stroke-width="2.34375" stroke-linecap="round" stroke-linejoin="round"></path> <path d="M32.8125 28.1599C31.2673 28.1599 29.7569 28.6181 28.4721 29.4765C27.1874 30.335 26.186 31.5551 25.5947 32.9827C25.0034 34.4102 24.8487 35.981 25.1501 37.4965C25.4516 39.012 26.1956 40.4041 27.2882 41.4967C28.3808 42.5893 29.7729 43.3333 31.2884 43.6348C32.8038 43.9362 34.3747 43.7815 35.8022 43.1902C37.2298 42.5989 38.4499 41.5975 39.3084 40.3128C40.1668 39.028 40.625 37.5175 40.625 35.9724V34.6576" stroke="#D32F2A" stroke-width="2.34375" stroke-linecap="round" stroke-linejoin="round"></path> <path d="M14.0625 35.1911H12.5C10.2884 35.1908 8.14803 34.4086 6.45723 32.9829C4.76642 31.5573 3.63399 29.5798 3.26003 27.4C2.88607 25.2202 3.29466 22.9784 4.4136 21.0706C5.53255 19.1629 7.28981 17.7121 9.37487 16.9746L9.37502 14.0974C9.37502 12.0254 10.1981 10.0382 11.6632 8.57314C13.1284 7.10801 15.1155 6.28491 17.1875 6.28491C19.2595 6.28491 21.2467 7.10801 22.7118 8.57314C24.1769 10.0382 25 12.0254 25 14.0974V35.9724" stroke="#D32F2A" stroke-width="2.34375" stroke-linecap="round" stroke-linejoin="round"></path> <path d="M35.9375 35.1911H37.5C39.7117 35.1908 41.852 34.4086 43.5428 32.9829C45.2336 31.5573 46.366 29.5798 46.74 27.4C47.1139 25.2202 46.7054 22.9784 45.5864 21.0706C44.4675 19.1629 42.7102 17.7121 40.6251 16.9746L40.625 14.0974C40.625 12.0254 39.8019 10.0382 38.3368 8.57314C36.8716 7.10801 34.8845 6.28491 32.8125 6.28491C30.7405 6.28491 28.7534 7.10801 27.2882 8.57314C25.8231 10.0382 25 12.0254 25 14.0974" stroke="#D32F2A" stroke-width="2.34375" stroke-linecap="round" stroke-linejoin="round"></path> <path d="M17.1875 16.441V18.0035C17.1875 19.4539 16.6113 20.8449 15.5857 21.8705C14.5602 22.8961 13.1692 23.4723 11.7188 23.4723" stroke="#D32F2A" stroke-width="2.34375" stroke-linecap="round" stroke-linejoin="round"></path> <path d="M32.8125 16.441V18.0035C32.8125 19.4539 33.3887 20.8449 34.4143 21.8705C35.4398 22.8961 36.8308 23.4723 38.2812 23.4723" stroke="#D32F2A" stroke-width="2.34375" stroke-linecap="round" stroke-linejoin="round"></path> </svg> 