<svg xmlns="http://www.w3.org/2000/svg" width="50" height="51" fill="none"><path d="M25 34.41V15.66m-7.812 12.5a7.813 7.813 0 11-7.813 7.812v-1.315" stroke="#D32F2A" stroke-width="2.344" stroke-linecap="round" stroke-linejoin="round"/><path d="M32.813 28.16a7.813 7.813 0 107.812 7.812v-1.314" stroke="#D32F2A" stroke-width="2.344" stroke-linecap="round" stroke-linejoin="round"/><path d="M14.063 35.191H12.5a9.376 9.376 0 01-3.125-18.216v-2.878a7.812 7.812 0 1115.625 0v21.875" stroke="#D32F2A" stroke-width="2.344" stroke-linecap="round" stroke-linejoin="round"/><path d="M35.938 35.191H37.5a9.376 9.376 0 003.125-18.216v-2.878a7.812 7.812 0 10-15.625 0m-7.812 2.344v1.563a5.469 5.469 0 01-5.47 5.468" stroke="#D32F2A" stroke-width="2.344" stroke-linecap="round" stroke-linejoin="round"/><path d="M32.813 16.441v1.563a5.469 5.469 0 005.468 5.468" stroke="#D32F2A" stroke-width="2.344" stroke-linecap="round" stroke-linejoin="round"/></svg>