<svg xmlns="http://www.w3.org/2000/svg" width="30" height="30" fill="none"><path d="M15 18.75l5-5H10l5 5zm0 8.75c-1.73 0-3.354-.328-4.875-.985a12.614 12.614 0 01-3.969-2.671 12.615 12.615 0 01-2.671-3.969C2.828 18.355 2.5 16.729 2.5 15c0-1.73.328-3.354.985-4.875a12.614 12.614 0 012.671-3.969 12.632 12.632 0 013.969-2.672C11.645 2.828 13.271 2.5 15 2.5c1.73 0 3.354.328 4.875.984a12.633 12.633 0 013.969 2.672 12.614 12.614 0 012.671 3.969c.657 1.52.985 3.146.985 4.875 0 1.73-.328 3.354-.985 4.875a12.614 12.614 0 01-2.671 3.969 12.614 12.614 0 01-3.969 2.671c-1.52.657-3.146.985-4.875.985zm0-2.5c2.792 0 5.156-.969 7.094-2.906C24.03 20.156 25 17.792 25 15c0-2.792-.969-5.156-2.906-7.094C20.156 5.97 17.792 5 15 5c-2.792 0-5.156.969-7.094 2.906C5.97 9.844 5 12.208 5 15c0 2.792.969 5.156 2.906 7.094C9.844 24.03 12.208 25 15 25z" fill="#D32F2A"/></svg>