<svg xmlns="http://www.w3.org/2000/svg" width="50" height="51" fill="none"><path d="M47.015 23.821l-4.828 2.414-6.25-11.97 4.877-2.438a1.563 1.563 0 012.084.675l4.803 9.198a1.563 1.563 0 01-.686 2.121zM7.813 26.026l-4.828-2.414a1.562 1.562 0 01-.686-2.121l4.803-9.199a1.563 1.563 0 012.084-.674l4.877 2.438-6.25 11.97z" stroke="#D32F2A" stroke-width="2.344" stroke-linecap="round" stroke-linejoin="round"/><path d="M42.188 26.235l-3.126 3.656-7.186 7.187a1.562 1.562 0 01-1.484.41l-11.32-2.83a1.561 1.561 0 01-.584-.284L7.813 26.025" stroke="#D32F2A" stroke-width="2.344" stroke-linecap="round" stroke-linejoin="round"/><path d="M39.063 29.89l-8.594-6.25-2.5 1.876a6.25 6.25 0 01-7.5 0l-1.059-.794a1.561 1.561 0 01-.167-2.355l7.643-7.644a1.562 1.562 0 011.105-.457h7.947" stroke="#D32F2A" stroke-width="2.344" stroke-linecap="round" stroke-linejoin="round"/><path d="M14.175 14.056l10.023-2.922a1.562 1.562 0 011.082.077l6.751 3.055M21.875 41.61l-5.887-1.472a1.564 1.564 0 01-.646-.337l-4.405-3.829" stroke="#D32F2A" stroke-width="2.344" stroke-linecap="round" stroke-linejoin="round"/></svg>