<svg xmlns="http://www.w3.org/2000/svg" width="53" height="53" fill="none"><path d="M4.818 43.364h43.364m-42.4-4.819h41.436" stroke="#D32F2A" stroke-width="2.332" stroke-linecap="round" stroke-linejoin="round"/><path d="M13.49 38.545V23.61c-1.926.321-6.937.675-11.563-.482.386 4.626 4.015 6.746 5.782 7.228v8.19m31.8-.001V23.61c1.927.321 6.938.675 11.564-.482-.386 4.626-4.016 6.746-5.782 7.228v8.19M25.915 9.669C22.77 15.98 13.795 16.32 9.7 15.702c-.492 3.713 1.966 6.497 3.93 7.425 7.48 0 11.303-3.867 12.285-5.569 0-3.712.232-8.353 0-7.89z" stroke="#D32F2A" stroke-width="2.332" stroke-linejoin="round"/><path d="M42.019 15.9l-.184-1.151a1.166 1.166 0 011.34 1.006l-1.156.145zm-17.056-5.767a1.166 1.166 0 012.11-.993l-2.11.993zm13.201 13.476l.522 1.043c-.162.08-.34.123-.522.123V23.61zm4.04-6.558c-2.138.342-5.535.419-8.834-.458-3.305-.878-6.666-2.761-8.407-6.46l2.11-.993c1.343 2.854 3.975 4.423 6.896 5.2 2.926.777 5.987.71 7.866.409l.368 2.302zm-15.062.218c.777 1.423 4.15 5.174 11.022 5.174v2.332c-7.795 0-11.918-4.28-13.069-6.39l2.047-1.116zm10.5 5.297c1.56-.78 3.63-3.235 3.22-6.521l2.314-.29c.553 4.423-2.195 7.75-4.49 8.897l-1.043-2.086z" fill="#D32F2A"/><path d="M20.236 37.582v-8.673h12.528v8.673" stroke="#D32F2A" stroke-width="2.332" stroke-linejoin="round"/></svg>